<svg width="31" height="31" viewBox="0 0 31 31" fill="none" xmlns="http://www.w3.org/2000/svg">
<path d="M4.30005 0.799988C2.37539 0.799988 0.800049 2.37533 0.800049 4.29999V26.7C0.800049 28.6246 2.37539 30.2 4.30005 30.2H26.7C28.6247 30.2 30.2 28.6246 30.2 26.7V4.29999C30.2 2.37533 28.6247 0.799988 26.7 0.799988H4.30005ZM4.30005 2.19999H26.7C27.868 2.19999 28.8 3.13205 28.8 4.29999V26.7C28.8 27.8679 27.868 28.8 26.7 28.8H4.30005C3.13211 28.8 2.20005 27.8679 2.20005 26.7V4.29999C2.20005 3.13205 3.13211 2.19999 4.30005 2.19999ZM16.3217 5.69999C13.4279 5.69999 13.4 12.8897 13.4 12.9625C13.4 13.8081 13.3994 14.3625 13.4561 15.0625C13.0578 14.9246 12.595 14.8369 12.0889 14.8369C9.11672 14.8369 7.80005 17.8638 7.80005 20.4328C7.80005 22.8555 9.23882 25.3 12.4553 25.3C13.9722 25.3 15.2551 24.3614 16.2862 22.9607C17.2004 23.8567 18.1575 23.8863 18.8743 23.8863C21.1255 23.8863 22.616 19.8244 23.1522 18.1906C23.323 17.6677 23.0207 17.1103 22.4754 16.9451C21.935 16.7827 21.3488 17.0703 21.178 17.5932C20.5445 19.5224 19.8778 21.296 18.825 21.8C18.4575 21.9757 17.8926 21.7468 17.3375 21.0125C18.6276 18.4036 19 15.2347 19 13.05C19 6.94179 17.6951 5.69999 16.3217 5.69999ZM16.4038 7.8328C16.73 8.2983 16.9315 9.71522 16.9315 13.0486C16.9308 14.8182 16.847 16.9131 16.1932 18.7142C15.762 17.3135 15.47 15.4244 15.47 12.9611C15.47 10.6903 15.9775 8.5615 16.4038 7.8328ZM12.0875 16.9C12.9688 16.9 13.6448 17.4674 13.6448 17.4674C13.6952 17.5178 13.7501 17.5615 13.8075 17.6C14.0966 18.9811 14.5416 20.3487 15.012 21.2244C14.2406 22.4858 13.3272 23.2 12.4375 23.2C10.103 23.2 9.90005 21.3534 9.90005 20.4875C9.90005 20.351 9.85735 16.9 12.0875 16.9Z" fill="#C5B5C0"/>
</svg>
